<?xml version="1.0" encoding="UTF-8" standalone="no"?>
<svg
   width="128px"
   height="128px"
   viewBox="0 0 128 128"
   version="1.1"
   id="svg12"
   sodipodi:docname="me.jonot.Nasin.svg"
   inkscape:version="1.3.2 (091e20ef0f, 2023-11-25)"
   xmlns:inkscape="http://www.inkscape.org/namespaces/inkscape"
   xmlns:sodipodi="http://sodipodi.sourceforge.net/DTD/sodipodi-0.dtd"
   xmlns="http://www.w3.org/2000/svg"
   xmlns:svg="http://www.w3.org/2000/svg">
  <sodipodi:namedview
     id="namedview12"
     pagecolor="#505050"
     bordercolor="#ffffff"
     borderopacity="1"
     inkscape:showpageshadow="0"
     inkscape:pageopacity="0"
     inkscape:pagecheckerboard="1"
     inkscape:deskcolor="#505050"
     inkscape:zoom="4"
     inkscape:cx="99.75"
     inkscape:cy="65.875"
     inkscape:window-width="1920"
     inkscape:window-height="1043"
     inkscape:window-x="0"
     inkscape:window-y="0"
     inkscape:window-maximized="1"
     inkscape:current-layer="svg12" />
  <defs
     id="defs8">
    <filter
       id="alpha"
       filterUnits="objectBoundingBox"
       x="0"
       y="0"
       width="1"
       height="1">
      <feColorMatrix
         type="matrix"
         in="SourceGraphic"
         values="0 0 0 0 1 0 0 0 0 1 0 0 0 0 1 0 0 0 1 0"
         id="feColorMatrix1" />
    </filter>
    <mask
       id="mask0">
      <g
         filter="url(#alpha)"
         id="g1">
        <rect
           x="0"
           y="0"
           width="128"
           height="128"
           style="fill:rgb(0%,0%,0%);fill-opacity:0.1;stroke:none;"
           id="rect1" />
      </g>
    </mask>
    <clipPath
       id="clip1">
      <rect
         x="0"
         y="0"
         width="192"
         height="152"
         id="rect2" />
    </clipPath>
    <g
       id="surface10632"
       clip-path="url(#clip1)">
      <path
         style="fill:none;stroke-width:0.99;stroke-linecap:butt;stroke-linejoin:miter;stroke:rgb(0%,0%,0%);stroke-opacity:1;stroke-dasharray:0.99,0.99;stroke-miterlimit:4;"
         d="M 123.503906 236 C 123.503906 268.863281 96.863281 295.503906 64 295.503906 C 31.136719 295.503906 4.496094 268.863281 4.496094 236 C 4.496094 203.136719 31.136719 176.496094 64 176.496094 C 96.863281 176.496094 123.503906 203.136719 123.503906 236 Z M 123.503906 236 "
         transform="matrix(1,0,0,1,8,-156)"
         id="path2" />
    </g>
    <mask
       id="mask1">
      <g
         filter="url(#alpha)"
         id="g3">
        <rect
           x="0"
           y="0"
           width="128"
           height="128"
           style="fill:rgb(0%,0%,0%);fill-opacity:0.1;stroke:none;"
           id="rect3" />
      </g>
    </mask>
    <clipPath
       id="clip2">
      <rect
         x="0"
         y="0"
         width="192"
         height="152"
         id="rect4" />
    </clipPath>
    <g
       id="surface10635"
       clip-path="url(#clip2)">
      <path
         style="fill:none;stroke-width:0.99;stroke-linecap:butt;stroke-linejoin:miter;stroke:rgb(0%,0%,0%);stroke-opacity:1;stroke-dasharray:0.99,0.99;stroke-miterlimit:4;"
         d="M 29.195312 180.496094 L 98.804688 180.496094 C 103.609375 180.496094 107.503906 184.046875 107.503906 188.425781 L 107.503906 283.574219 C 107.503906 287.953125 103.609375 291.503906 98.804688 291.503906 L 29.195312 291.503906 C 24.390625 291.503906 20.496094 287.953125 20.496094 283.574219 L 20.496094 188.425781 C 20.496094 184.046875 24.390625 180.496094 29.195312 180.496094 Z M 29.195312 180.496094 "
         transform="matrix(1,0,0,1,8,-156)"
         id="path4" />
    </g>
    <mask
       id="mask2">
      <g
         filter="url(#alpha)"
         id="g5">
        <rect
           x="0"
           y="0"
           width="128"
           height="128"
           style="fill:rgb(0%,0%,0%);fill-opacity:0.1;stroke:none;"
           id="rect5" />
      </g>
    </mask>
    <clipPath
       id="clip3">
      <rect
         x="0"
         y="0"
         width="192"
         height="152"
         id="rect6" />
    </clipPath>
    <g
       id="surface10638"
       clip-path="url(#clip3)">
      <path
         style="fill:none;stroke-width:0.99;stroke-linecap:butt;stroke-linejoin:miter;stroke:rgb(0%,0%,0%);stroke-opacity:1;stroke-dasharray:0.99,0.99;stroke-miterlimit:4;"
         d="M 20.417969 184.496094 L 107.582031 184.496094 C 111.957031 184.496094 115.503906 188.042969 115.503906 192.417969 L 115.503906 279.582031 C 115.503906 283.957031 111.957031 287.503906 107.582031 287.503906 L 20.417969 287.503906 C 16.042969 287.503906 12.496094 283.957031 12.496094 279.582031 L 12.496094 192.417969 C 12.496094 188.042969 16.042969 184.496094 20.417969 184.496094 Z M 20.417969 184.496094 "
         transform="matrix(1,0,0,1,8,-156)"
         id="path6" />
    </g>
    <mask
       id="mask3">
      <g
         filter="url(#alpha)"
         id="g7">
        <rect
           x="0"
           y="0"
           width="128"
           height="128"
           style="fill:rgb(0%,0%,0%);fill-opacity:0.1;stroke:none;"
           id="rect7" />
      </g>
    </mask>
    <clipPath
       id="clip4">
      <rect
         x="0"
         y="0"
         width="192"
         height="152"
         id="rect8" />
    </clipPath>
    <g
       id="surface10641"
       clip-path="url(#clip4)">
      <path
         style="fill:none;stroke-width:0.99;stroke-linecap:butt;stroke-linejoin:miter;stroke:rgb(0%,0%,0%);stroke-opacity:1;stroke-dasharray:0.99,0.99;stroke-miterlimit:4;"
         d="M 16.425781 200.496094 L 111.574219 200.496094 C 115.953125 200.496094 119.503906 204.390625 119.503906 209.195312 L 119.503906 278.804688 C 119.503906 283.609375 115.953125 287.503906 111.574219 287.503906 L 16.425781 287.503906 C 12.046875 287.503906 8.496094 283.609375 8.496094 278.804688 L 8.496094 209.195312 C 8.496094 204.390625 12.046875 200.496094 16.425781 200.496094 Z M 16.425781 200.496094 "
         transform="matrix(1,0,0,1,8,-156)"
         id="path8" />
    </g>
  </defs>
  <rect
     style="fill:#3584e4;fill-opacity:1;stroke-width:2.39094"
     id="rect12-6"
     width="104"
     height="92"
     x="12"
     y="24"
     ry="11.729873" />
  <rect
     style="fill:#62a0ea;fill-opacity:1;stroke-width:2.39094"
     id="rect12"
     width="104"
     height="92"
     x="12"
     y="12"
     ry="11.729873" />
  <path
     id="rect12-1"
     style="fill:#ffffff;fill-opacity:1;stroke-width:2.39094"
     d="M 23.730469 12 C 17.232126 12 12 17.232126 12 23.730469 L 12 84.099609 L 64.462891 31.636719 L 116 83.171875 L 116 23.730469 C 116 17.232126 110.76787 12 104.26953 12 L 23.730469 12 z " />
  <rect
     style="fill:#33d17a;fill-opacity:1;stroke:none;stroke-width:1.01689;stroke-linecap:round;stroke-linejoin:round;stroke-miterlimit:18.9;stroke-dasharray:none;stroke-opacity:1"
     id="rect13-5"
     width="8"
     height="12"
     x="60"
     y="104" />
  <g
     id="g15"
     style="fill:#57e389;fill-opacity:1">
    <rect
       style="fill:#57e389;fill-opacity:1;stroke:none;stroke-width:2.81563;stroke-linecap:round;stroke-linejoin:round;stroke-miterlimit:18.9;stroke-dasharray:none;stroke-opacity:1"
       id="rect13"
       width="8"
       height="92"
       x="60"
       y="12" />
    <path
       id="rect14"
       style="fill:#57e389;fill-opacity:1;stroke:none;stroke-width:3.32284;stroke-linecap:round;stroke-linejoin:round;stroke-miterlimit:18.9;stroke-dasharray:none;stroke-opacity:1"
       d="M -21.213203 -63.63961 L 46.669048 -63.63961 L 54.669574 -71.640137 L -13.214058 -71.638756 L -21.213203 -63.63961 z "
       transform="rotate(135)" />
    <path
       id="rect14-2"
       style="fill:#57e389;fill-opacity:1;stroke:none;stroke-width:3.32284;stroke-linecap:round;stroke-linejoin:round;stroke-miterlimit:18.9;stroke-dasharray:none;stroke-opacity:1"
       d="m 68,30 48,48 V 89.314453 L 68.00001,41.312487 Z" />
  </g>
</svg>
